<?xml version="1.0" standalone="no"?><!DOCTYPE svg PUBLIC "-//W3C//DTD SVG 1.1//EN" "http://www.w3.org/Graphics/SVG/1.1/DTD/svg11.dtd"><svg t="1699619558897" class="icon" viewBox="0 0 1024 1024" version="1.1" xmlns="http://www.w3.org/2000/svg" p-id="1444" xmlns:xlink="http://www.w3.org/1999/xlink" width="200" height="200"><path d="M127.116 480.688l372.064-312.048 25.704 30.648-372.064 312.048z" fill="#595757" p-id="1445"></path><path d="M140 496m-20 0a20 20 0 1 0 40 0 20 20 0 1 0-40 0Z" fill="#595757" p-id="1446"></path><path d="M499.108 199.292l25.704-30.648 372.068 312.044-25.704 30.648z" fill="#595757" p-id="1447"></path><path d="M884 496m-20 0a20 20 0 1 0 40 0 20 20 0 1 0-40 0Z" fill="#595757" p-id="1448"></path><path d="M704 236m-20 0a20 20 0 1 0 40 0 20 20 0 1 0-40 0Z" fill="#595757" p-id="1449"></path><path d="M704 272m-20 0a20 20 0 1 0 40 0 20 20 0 1 0-40 0Z" fill="#595757" p-id="1450"></path><path d="M832 356m-20 0a20 20 0 1 0 40 0 20 20 0 1 0-40 0Z" fill="#595757" p-id="1451"></path><path d="M780 516m-20 0a20 20 0 1 0 40 0 20 20 0 1 0-40 0Z" fill="#595757" p-id="1452"></path><path d="M236 516m-20 0a20 20 0 1 0 40 0 20 20 0 1 0-40 0Z" fill="#595757" p-id="1453"></path><path d="M512 184m-20 0a20 20 0 1 0 40 0 20 20 0 1 0-40 0Z" fill="#595757" p-id="1454"></path><path d="M776 848h-188c-13.2 0-24-10.8-24-24v-220h-112v220c0 13.2-10.8 24-24 24H240c-13.2 0-24-10.8-24-24v-308h40v292h156v-220c0-13.2 10.8-24 24-24h144c13.2 0 24 10.8 24 24v220h156v-292h40v308c0 13.2-10.8 24-24 24zM852 356h-40V256h-108V216h124c13.2 0 24 10.8 24 24v116z" fill="#595757" p-id="1455"></path><path d="M684 234h40V272h-40z" fill="#595757" p-id="1456"></path></svg>