<?xml version="1.0" standalone="no"?><!DOCTYPE svg PUBLIC "-//W3C//DTD SVG 1.1//EN" "http://www.w3.org/Graphics/SVG/1.1/DTD/svg11.dtd"><svg t="1699521807731" class="icon" viewBox="0 0 1024 1024" version="1.1" xmlns="http://www.w3.org/2000/svg" p-id="1546" xmlns:xlink="http://www.w3.org/1999/xlink" width="200" height="200"><path d="M512 128c-211.7 0-384 172.3-384 384s172.3 384 384 384 384-172.3 384-384-172.3-384-384-384z m0 717.4c-183.8 0-333.4-149.6-333.4-333.4S328.2 178.6 512 178.6 845.4 328.2 845.4 512 695.8 845.4 512 845.4z" p-id="1547"></path><path d="M512 410.8c-14 0-25.3 11.3-25.3 25.3v229.5c0 14 11.3 25.3 25.3 25.3s25.3-11.3 25.3-25.3V436.1c0-14-11.3-25.3-25.3-25.3zM512 333.2c-14 0-25.3 11.3-25.3 25.3s11.4 25.3 25.3 25.3c14 0 25.3-11.3 25.3-25.3S526 333.2 512 333.2z" p-id="1548"></path></svg>